<?xml version="1.0" encoding="utf-8"?>
<!-- Generator: Adobe Illustrator 20.0.0, SVG Export Plug-In . SVG Version: 6.00 Build 0)  -->
<svg version="1.1" id="Layer_1" xmlns="http://www.w3.org/2000/svg" xmlns:xlink="http://www.w3.org/1999/xlink" x="0px" y="0px"
	 viewBox="0 0 792 201.6" style="enable-background:new 0 0 792 201.6;" xml:space="preserve">
<style type="text/css">
	.st0{fill:#50342B;}
</style>
<g>
	<g>
		<path class="st0" d="M85.1,54.7C76.2,63,67.2,68.9,58,72.7c-9.2,3.7-19.8,5.6-31.8,5.6c-1.8,0-3.7,0-5.7,0c-2,0-3.8-0.3-5.5-0.9
			c-1.7-0.6-3.1-1.5-4.2-2.7c-1.1-1.2-1.7-3.1-1.7-5.7c0-2.7,0.8-4.9,2.5-6.4c1.7-1.5,3.8-2.4,6.4-2.7c1.2-0.1,2.4-0.1,3.4,0
			c1.1,0.2,2.2,0.2,3.4,0.2c13.1,0,24.2-2.6,33.4-7.9c9.2-5.3,17.9-12.7,26.1-22.5c2.1-2.3,4.1-4.6,5.8-7.1c1.7-2.4,3.6-4.9,5.6-7.5
			c1.1-1.4,2.3-2.5,3.7-3.4c1.4-0.9,3-1.4,4.8-1.4c2.6,0,4.6,0.9,6,2.6c1.4,1.8,2.2,3.8,2.2,6.3c0,0.8-0.2,1.9-0.5,3.4
			c-0.9,4.3-1.9,8.4-3,12.6c-1.1,4.1-2.1,8.3-3.2,12.6c2.7-3,5.9-6.1,9.5-9.2c3.6-3.1,7.4-6,11.4-8.6c4-2.6,8.2-4.7,12.6-6.3
			c4.3-1.6,8.7-2.4,13.1-2.4c5.2,0,9.7,1.1,13.5,3.2c3.8,2.1,6.9,4.9,9.2,8.3c2.4,3.4,4.1,7.4,5.2,11.9c1.1,4.5,1.7,9,1.7,13.6
			c0,9.9-2.6,19.2-7.9,27.8c-5.2,8.7-12,16.2-20.2,22.6c-8.2,6.4-17.2,11.4-27,15.1c-9.8,3.7-19.3,5.5-28.4,5.5
			c-2.6,0-5.2-0.1-7.9-0.3c-2.7-0.2-5.3-0.7-7.9-1.5c-3.5,11.4-7.2,22.8-11,34.2c-0.9,2.9-1.8,5.8-2.6,8.7c-0.8,2.9-1.8,5.7-2.9,8.4
			c-0.8,2.1-1.8,3.8-3.2,5.1c-1.4,1.3-3.2,1.9-5.5,1.9c-2.6,0-4.8-0.9-6.5-2.6c-1.8-1.7-2.6-3.9-2.6-6.5c0-0.8,0-1.4,0.1-1.9
			c0.1-0.5,0.2-1.1,0.3-1.7c3-10.8,6.3-21.5,9.7-32c3.4-10.5,7-21.1,10.8-31.7c3.2-8.8,6-17.8,8.4-27C80.4,73,82.8,63.9,85.1,54.7z
			 M88.9,110c2.9,0.6,6.1,0.9,9.6,0.9c6.5,0,13.6-1.4,21.2-4.1c7.6-2.7,14.7-6.5,21.2-11.3c6.5-4.8,12-10.4,16.3-16.8
			c4.3-6.4,6.5-13.2,6.5-20.5c0-1.8-0.2-3.8-0.5-6c-0.3-2.2-0.9-4.2-1.7-6c-0.8-1.8-2-3.4-3.4-4.7c-1.4-1.3-3.4-1.9-5.8-1.9
			c-6.8,0-13.6,2.6-20.3,7.9c-6.7,5.2-12.9,11.6-18.5,19.1C108,73.8,103,81.6,98.8,89.5C94.5,97.5,91.2,104.3,88.9,110z"/>
		<path class="st0" d="M188.7,166.3c0,0.8,0,1.7,0.1,2.9c0.1,1.1,0.3,2.1,0.8,2.9c0.9,0.5,1.8,0.7,2.7,0.7c3.5,0,7.1-1,10.7-3
			c3.7-2,7.1-4.4,10.4-7.3c3.3-2.9,6.2-6,8.9-9.5c2.7-3.4,4.8-6.7,6.3-9.7c2.9-6.1,4.8-12.6,5.7-19.5c0.9-6.9,2.2-13.7,3.9-20.2
			c0.6-2.4,1.6-4.4,3-5.8c1.4-1.4,3.3-2.2,5.9-2.2c2.6,0,4.8,0.9,6.5,2.6c1.7,1.8,2.6,3.9,2.6,6.5c0,2.4-0.4,5.6-1.3,9.5
			c-0.8,3.9-1.5,7-1.9,9.5c-0.6,3-1.4,6.6-2.3,10.7c-0.9,4.1-1.8,8.3-2.7,12.6c-0.9,4.3-1.7,8.4-2.3,12.4c-0.6,4-0.9,7.5-0.9,10.4
			c0,0.8,0,1.4,0,2.1c0,0.6,0.2,1.2,0.5,1.8h0.7c2.9,0,5.6-0.6,8.2-1.9c2.6-1.3,4.9-3,7.1-5c2.1-2.1,4.1-4.3,5.8-6.7
			c1.7-2.4,3.2-4.9,4.5-7.3c1.7-3.5,4.3-5.3,8-5.3c2.4,0,4.6,0.8,6.6,2.5c2,1.7,3,3.8,3,6.4c0,1.2-0.4,2.6-1.1,4.1
			c-1.7,4-3.9,7.8-6.7,11.5c-2.8,3.7-6,7.1-9.6,10c-3.6,3-7.5,5.4-11.6,7.2c-4.2,1.8-8.6,2.7-13.1,2.7c-11.7,0-18.3-5.8-19.6-17.3
			c-4.7,4.6-10,8.4-15.9,11.6c-5.9,3.2-12.2,4.8-19.1,4.8c-4.1,0-7.6-0.7-10.4-2.1c-2.8-1.4-5.1-3.2-6.8-5.6c-1.8-2.4-3-5.1-3.7-8.3
			c-0.7-3.2-1-6.6-1-10.3c0-4.9,0.4-9.7,1.3-14.4c0.8-4.7,1.7-9.4,2.6-14.2c1.2-5.5,2.4-10.9,3.4-16.3c1.1-5.4,2.2-10.8,3.4-16.1
			c0.5-2.3,1.4-4.1,2.9-5.5c1.4-1.4,3.4-2.1,5.8-2.1c2.6,0,4.8,0.8,6.6,2.5c1.8,1.7,2.7,3.8,2.7,6.4c0,0.8-0.1,1.4-0.2,1.8
			c-0.8,4.6-1.8,9.4-3,14.4c-1.2,5-2.4,10.1-3.4,15.3c-1.1,5.2-2,10.3-2.7,15.3C189.1,157,188.7,161.8,188.7,166.3z"/>
		<path class="st0" d="M275.2,162c-2.7-1.7-4.1-4.1-4.1-7.3c0-0.9,0.1-1.7,0.3-2.3c0.2-0.6,0.5-1.3,0.8-2.1c0.8-1.7,1.6-3.3,2.4-4.9
			c0.8-1.6,1.6-3.2,2.4-4.7l9.4-18.7c1.1-2.4,2.4-5.4,4.1-8.8c1.7-3.4,3.6-6.7,5.8-9.7c2.2-3,4.6-5.7,7.3-7.9
			c2.7-2.2,5.6-3.3,8.8-3.3c4.1,0,8.1,2.3,11.9,7c3.8,4.6,7.1,10.1,9.9,16.4c2.8,6.3,5.1,12.7,6.7,19.1c1.7,6.4,2.5,11.3,2.5,14.8
			c0,4.3-0.6,8.4-1.7,12.4c-1.1,4-2.9,7.8-5.4,11.3c5-1.4,9.2-4.1,12.4-8.1c3.3-4,6-8.3,8.3-12.7c0.9-1.7,2-3,3.2-3.9
			c1.2-0.9,2.8-1.4,4.8-1.4c2.6,0,4.8,0.8,6.7,2.5c1.9,1.7,2.9,3.8,2.9,6.4c0,0.8-0.1,1.4-0.2,2.1c-0.2,0.6-0.4,1.3-0.7,2.1
			c-1.7,3.8-3.9,7.6-6.6,11.4c-2.7,3.8-5.9,7.2-9.4,10.2c-3.5,3-7.3,5.4-11.4,7.3c-4.1,1.9-8.4,2.9-13,2.9c-7.9,0-15.4-1.2-22.6-3.7
			c-1.1,0.2-2.1,0.3-3.1,0.3c-1,0.1-2,0.1-3.1,0.1c-3.7,0-7.1-0.8-10.4-2.3c-3.3-1.5-6.2-3.5-8.8-6c-2.6-2.5-4.8-5.4-6.5-8.6
			C277.2,168.9,275.9,165.5,275.2,162z M311.9,113.2c-4.1,5.8-7.6,11.8-10.6,18.1c-3,6.3-6,12.7-9,19.1c0.6,3.2,1.6,5.9,3,8.2
			c1.4,2.3,3,4.1,4.9,5.6c1.9,1.4,4,2.6,6.2,3.4c2.2,0.8,4.5,1.5,6.7,1.9c4.4-1.2,7.5-3.5,9.2-6.8c1.7-3.3,2.6-7.2,2.6-11.4
			c0-2.9-0.4-6-1.1-9.5c-0.8-3.4-1.8-6.8-3-10.3c-1.2-3.4-2.6-6.7-4.1-9.8C315.2,118.6,313.6,115.8,311.9,113.2z"/>
		<path class="st0" d="M361.2,192.6c-2.6,0-4.8-0.8-6.5-2.5c-1.7-1.7-2.6-3.8-2.6-6.4c0-1.7,0.2-3.5,0.7-5.4
			c0.5-1.9,0.8-3.7,1.1-5.4c3.5-19,7-38,10.6-56.8c3.6-18.9,7.5-37.8,11.8-56.8c0.9-4.3,2.3-8.9,4.1-13.8c1.8-4.9,4.1-9.5,7-13.8
			c2.8-4.3,6.2-7.8,10-10.6c3.9-2.8,8.4-4.2,13.6-4.2c6.7,0,11.6,1.7,14.7,5.1c3.1,3.4,4.7,8.3,4.7,14.7c0,4.6-0.6,9.5-1.9,14.7
			c-1.3,5.3-3,10.5-5,15.7c-2.1,5.2-4.3,10.4-6.6,15.4c-2.4,5-4.7,9.4-7,13.2c2.4-0.5,4.8-0.7,7.1-0.7c8.1,0,13.8,2.1,17.1,6.3
			c3.3,4.2,5,10,5,17.5c0,5.5-0.6,10.9-1.7,16.3c-1.1,5.4-2.3,10.8-3.5,16.1c-0.6,3-1.3,6.1-1.9,9.2c-0.7,3.1-1,6.2-1,9.2
			c0,1.5,0.2,3,0.7,4.3c0.3,0,0.6-0.1,0.8-0.2c0.2-0.1,0.5-0.2,0.8-0.2c2.7,0,5.3-0.7,7.8-2.1c2.4-1.4,4.7-3.1,6.7-5.1
			c2.1-2.1,3.9-4.3,5.5-6.8c1.6-2.5,3-4.8,4.2-7c0.9-1.7,2-3,3.2-3.9c1.2-0.9,2.8-1.4,4.8-1.4c2.6,0,4.8,0.8,6.7,2.5
			c1.9,1.7,2.9,3.8,2.9,6.4c0,0.8-0.1,1.4-0.2,2.1c-0.2,0.6-0.4,1.3-0.7,2.1c-1.7,4-3.9,7.8-6.7,11.5c-2.8,3.7-6,7.1-9.5,10
			c-3.5,3-7.3,5.4-11.5,7.2c-4.2,1.8-8.6,2.7-13.1,2.7c-7.2,0-12.3-1.8-15.4-5.5c-3.1-3.7-4.7-8.9-4.7-15.7c0-4.1,0.4-8.3,1.3-12.6
			c0.8-4.3,1.7-8.5,2.6-12.8c0.9-4.3,1.8-8.4,2.6-12.4c0.8-4,1.3-8,1.3-12c0-1.2-0.1-2.4-0.2-3.7c-0.2-1.2-0.5-2.4-1.1-3.4
			c-0.3-0.3-0.7-0.5-1.3-0.5c-0.5,0-1,0-1.3,0c-3.5,0-7.1,1-10.7,3c-3.7,2-7.1,4.5-10.4,7.4c-3.3,3-6.2,6.2-8.9,9.6
			c-2.7,3.4-4.7,6.6-6,9.5c-1.5,3-2.7,6.1-3.7,9.1c-0.9,3-1.8,6.1-2.5,9.1c-0.8,4-1.5,7.8-2.3,11.6c-0.8,3.8-1.4,7.7-2.1,11.6
			c-0.5,2.4-1.5,4.4-3.1,5.9C365.7,191.8,363.7,192.6,361.2,192.6z M411.7,35.1c-2.4,0.2-4.7,1.5-6.8,4c-2.1,2.5-4.1,5.8-5.8,9.8
			c-1.8,4-3.3,8.4-4.7,13.2c-1.4,4.8-2.5,9.5-3.5,14c-1,4.6-1.8,8.8-2.5,12.6c-0.7,3.8-1.2,6.6-1.5,8.4c3.3-4.1,6.5-8.4,9.6-12.9
			c3-4.5,5.7-9.2,8-14.2c2.3-4.9,4.1-10,5.5-15.2c1.4-5.2,2.1-10.5,2.1-16c0-0.6,0-1.2,0-1.8C411.9,36.6,411.8,35.9,411.7,35.1z"/>
		<path class="st0" d="M481,172.3c1.7,2,3.7,3,6.2,3c4.1,0,7.9-0.2,11.3-0.5c3.4-0.3,6.6-1,9.6-2.1c3-1.1,5.7-2.7,8.3-4.8
			c2.6-2.1,5.1-5,7.5-8.7c0.8-1.2,1.4-2.5,2.1-3.8c0.6-1.3,1.3-2.5,2.1-3.8c0.9-1.7,2-3,3.2-3.9c1.2-0.9,2.8-1.4,4.8-1.4
			c2.4,0,4.6,0.8,6.6,2.5c2,1.7,3,3.8,3,6.4c0,1.2-0.4,2.6-1.1,4.1c-3,6.7-6.4,12.2-10.2,16.5c-3.7,4.3-8,7.8-12.7,10.4
			c-4.7,2.6-9.9,4.4-15.5,5.5c-5.6,1.1-11.9,1.6-18.9,1.6c-5.3,0-9.8-1.1-13.5-3.3c-3.7-2.2-6.6-5.1-8.9-8.8
			c-2.3-3.7-3.9-7.7-4.9-12.2c-1-4.5-1.5-9-1.5-13.6c0-6.1,0.9-12.7,2.7-19.9c1.8-7.1,4.6-13.8,8.2-20c3.7-6.2,8.2-11.3,13.7-15.4
			c5.5-4.1,11.9-6.2,19.2-6.2c7.3,0,12.7,2,16.2,5.9c3.5,4,5.3,9.6,5.3,16.9c0,4.3-0.7,8.7-1.9,13.4c-1.3,4.6-3.2,8.8-5.6,12.4
			c-2,2.9-4.3,5.7-7.1,8.6c-2.7,2.8-5.7,5.5-8.8,8.1c-3.1,2.6-6.4,5-9.7,7.2C487.3,168.9,484.1,170.8,481,172.3z M476.5,154.2
			c3-1.8,6.3-4,9.7-6.5c3.4-2.5,6.6-5.4,9.5-8.6c2.9-3.2,5.3-6.6,7.2-10.3c1.9-3.7,2.9-7.5,2.9-11.4c0-0.8-0.1-1.6-0.2-2.5
			c-0.2-0.9-0.4-1.7-0.7-2.5c-4.9,0.3-9.1,1.9-12.6,4.7c-3.5,2.8-6.4,6.3-8.8,10.4c-2.4,4.1-4.1,8.6-5.3,13.4
			C477.1,145.7,476.5,150.1,476.5,154.2z"/>
		<path class="st0" d="M551.8,172.3c1.7,2,3.7,3,6.2,3c4.1,0,7.9-0.2,11.3-0.5c3.4-0.3,6.6-1,9.6-2.1c3-1.1,5.7-2.7,8.3-4.8
			c2.6-2.1,5.1-5,7.5-8.7c0.8-1.2,1.4-2.5,2.1-3.8c0.6-1.3,1.3-2.5,2.1-3.8c0.9-1.7,2-3,3.2-3.9c1.2-0.9,2.8-1.4,4.8-1.4
			c2.4,0,4.6,0.8,6.6,2.5c2,1.7,3,3.8,3,6.4c0,1.2-0.4,2.6-1.1,4.1c-3,6.7-6.4,12.2-10.2,16.5c-3.7,4.3-8,7.8-12.7,10.4
			c-4.7,2.6-9.9,4.4-15.5,5.5c-5.6,1.1-11.9,1.6-18.9,1.6c-5.3,0-9.8-1.1-13.5-3.3c-3.7-2.2-6.6-5.1-8.9-8.8
			c-2.3-3.7-3.9-7.7-4.9-12.2c-1-4.5-1.5-9-1.5-13.6c0-6.1,0.9-12.7,2.7-19.9c1.8-7.1,4.6-13.8,8.2-20c3.7-6.2,8.2-11.3,13.7-15.4
			c5.5-4.1,11.9-6.2,19.2-6.2c7.3,0,12.7,2,16.2,5.9c3.5,4,5.3,9.6,5.3,16.9c0,4.3-0.7,8.7-1.9,13.4c-1.3,4.6-3.2,8.8-5.6,12.4
			c-2,2.9-4.3,5.7-7.1,8.6c-2.7,2.8-5.7,5.5-8.8,8.1c-3.1,2.6-6.4,5-9.7,7.2C558,168.9,554.8,170.8,551.8,172.3z M547.2,154.2
			c3-1.8,6.3-4,9.7-6.5c3.4-2.5,6.6-5.4,9.5-8.6c2.9-3.2,5.3-6.6,7.2-10.3c1.9-3.7,2.9-7.5,2.9-11.4c0-0.8-0.1-1.6-0.2-2.5
			c-0.2-0.9-0.4-1.7-0.7-2.5c-4.9,0.3-9.1,1.9-12.6,4.7c-3.5,2.8-6.4,6.3-8.8,10.4c-2.4,4.1-4.1,8.6-5.3,13.4
			C547.8,145.7,547.2,150.1,547.2,154.2z"/>
		<path class="st0" d="M620.2,150.3c-2.1,3.9-3.9,7.9-5.6,12c-0.8,1.8-1.8,3.3-3.2,4.5c-1.4,1.1-3.1,1.7-5.2,1.7
			c-2.4,0-4.6-0.8-6.5-2.5c-1.9-1.7-2.9-3.8-2.9-6.4c0-0.8,0.2-1.9,0.5-3.4c0.6-1.7,1.8-4.4,3.7-8.1c1.8-3.7,4-7.9,6.4-12.4
			c2.4-4.6,5.1-9.3,8-14.2c2.9-4.9,5.7-9.4,8.6-13.5c2.8-4.1,5.4-7.5,7.9-10.3c2.4-2.7,4.4-4.3,5.9-4.6h1.1c2,0,3.6,0.5,4.8,1.6
			c1.2,1.1,2.2,2.4,2.9,4c0.7,1.6,1.2,3.3,1.5,5.2c0.3,1.9,0.5,3.6,0.5,5.1c2.3-2.1,4.8-4.3,7.5-6.4c2.7-2.1,5.6-4.1,8.6-5.8
			c3-1.7,6-3.2,9.2-4.2c3.2-1.1,6.4-1.6,9.6-1.6c4,0,7.2,0.8,9.8,2.5c2.6,1.7,4.6,3.8,6,6.5c1.4,2.7,2.5,5.7,3.1,9
			c0.6,3.3,0.9,6.7,0.9,10c0,4.1-0.3,8.1-1,12.1c-0.7,4-1.4,7.9-2.2,11.8c-0.8,3.9-1.5,7.7-2.2,11.5c-0.7,3.8-1,7.6-1,11.4
			c0,1.5,0.1,2.6,0.2,3.2c3,0,5.9-0.6,8.6-1.8c2.7-1.2,5.1-2.9,7.3-4.9c2.2-2.1,4.2-4.3,5.9-6.7c1.7-2.4,3.3-4.9,4.7-7.5
			c0.9-1.7,2-3,3.2-3.9c1.2-0.9,2.8-1.4,4.8-1.4c2.4,0,4.6,0.8,6.6,2.5c2,1.7,3,3.8,3,6.4c0,0.8-0.1,1.4-0.2,2.1
			c-0.2,0.6-0.4,1.3-0.7,2.1c-1.7,3.7-4,7.4-7,11.2c-3,3.8-6.4,7.2-10.3,10.3c-3.9,3-8,5.6-12.2,7.5c-4.3,2-8.4,3-12.6,3
			c-7.2,0-12.2-2.1-15.2-6.2c-3-4.1-4.5-9.4-4.5-16c0-4.1,0.4-8.2,1.1-12.2c0.8-4,1.6-8.1,2.4-12.2c0.8-4.1,1.6-8.1,2.4-12.1
			c0.8-4,1.1-7.8,1.1-11.6c0-0.2,0-0.6-0.1-1.5c-0.1-0.8-0.2-1.7-0.5-2.6c-0.2-0.9-0.6-1.7-1-2.5c-0.5-0.8-1-1.1-1.6-1.1
			c-3.5,0-7.1,1.3-10.8,3.8c-3.7,2.5-7.3,5.5-10.7,9c-3.4,3.5-6.5,7.2-9.1,11.1c-2.7,3.9-4.6,7.3-5.8,10.2c-1.2,2.9-2.2,5.9-2.9,8.9
			c-0.7,3-1.3,6.1-1.7,9.2c-0.5,3.1-0.9,6.2-1.4,9.4c-0.5,3.1-1.1,6.2-1.8,9.2c-0.6,2.3-1.6,4.2-3.1,5.7c-1.4,1.5-3.5,2.3-6,2.3
			c-2.6,0-4.7-0.8-6.4-2.5c-1.7-1.7-2.5-3.8-2.5-6.4c0-2,0.2-4.2,0.6-6.7c0.4-2.5,0.8-5.1,1.3-7.9c0.5-2.7,0.9-5.4,1.5-8
			c0.5-2.6,1-4.9,1.5-6.8l1.8-11.4C624.4,142.5,622.2,146.4,620.2,150.3z"/>
	</g>
	<g>
		<path class="st0" d="M739.9,113.9c-1,0-1.9-1.4-1.9-2.2c0-1.2,1-2.2,2.2-2.2h14.7c1.2,0,2.1,1,2.1,2.2c0,0.9-0.7,2.2-1.9,2.2h-5.5
			v16.7c0,1.1-1,2.2-2.2,2.2c-0.9,0-2.2-0.7-2.2-1.9l-0.1-17H739.9z"/>
		<path class="st0" d="M771.9,115.9c0.6-2.7,1.5-6.4,5.3-6.4c3.9,0,5,4.5,5.2,7.4c0.3,3.8,0.5,10.3,0.5,12.8v1.2
			c0,1.1-1.2,1.9-2.1,1.9c-1.1,0-2.1-0.9-2.2-2l-0.3-10c0-0.5-0.3-6.9-1.2-6.9c-1.2,0-1.8,7-2,8.4L774,131c-0.2,1.2-1.1,1.9-2.1,1.9
			c-1.1,0-2-0.7-2.2-1.9l-1.1-8.6c-0.3-2.3-0.5-3-1.2-6.3c-0.2-0.8-0.6-2.1-0.8-2.1c-1.1,0-1.2,6.8-1.2,7l-0.3,9.9
			c0,1.1-1.1,2.1-2.1,2.1c-1,0-2.1-0.9-2.1-1.9v-1.2c0-0.6,0.2-6.6,0.2-8.6l0.2-3.5c0.2-3,1-8.1,5.3-8.1
			C770.3,109.6,771.2,113.2,771.9,115.9z"/>
	</g>
</g>
</svg>
